<svg xmlns="http://www.w3.org/2000/svg" viewBox="0 0 104.25 142"><title>Liberty Mutual logo</title><path d="M564.13,500.93c-.4-.42-1.2,0-1.2,0l-13.63,4.92a23.23,23.23,0,0,0-3.61-7l4.41-12.3s.4-1.23,0-1.65c-.4,0-1.2.84-1.2.84l-8,6.57a31.6,31.6,0,0,0-10.82-8.22,32.79,32.79,0,0,0-4.81-1.65L522.84,473s0-1.23-.8-1.23c-.4,0-.8.81-.8.81l-1.6,8.61c-1.6,0-3.21-.39-5.21-.39a36.87,36.87,0,0,0-15.63,3.27,38.91,38.91,0,0,0-5.61,3.27l-.8.84c-1.6-4.53-2.8-7.8-3.2-9,1.2-.81,2.8-3.69,3.2-5.76.8-2.85.8-4.5,0-6.54-.4-1.65-1.6-3.3-1.6-4.11.4-.84.4-1.23.8-1.65a1.49,1.49,0,0,0-1.6-1.65h-2s-.4,0,0-1.23c.4-1.62,3.21-2.46,6-3.27q4.81-1.85,4.81-7.38a5.24,5.24,0,0,0-3.21-5.76,9.41,9.41,0,0,1-2.8,2.88,6.53,6.53,0,0,1-3.61.81,4.72,4.72,0,0,0-2.41-4.5c-.4.81-2,2-4.81,2-2.41,0-2.81-.81-6.41-.81-5.21,0-9.62,3.27-10,8.22-.4,2.85.8,5.31,1.6,7a13.79,13.79,0,0,0-2.41,2.46,2.22,2.22,0,0,0-2.8-.42,5.37,5.37,0,0,1,.4,2.46c-.4.84-2.41,4.53-2.41,7.41-.4,5.31,2.41,9,4.81,9.84a2.67,2.67,0,0,0,0,2.46c0,.42.4.81,1.6.81a3.47,3.47,0,0,0-.4,2.88c.4,1.23,1.6,2.88,2.8,2.88,0,.81.4,2.88.4,3.69a3.45,3.45,0,0,0-.4,2.88,2.28,2.28,0,0,0,2,2.46,3.19,3.19,0,0,0,.8,2c.4.42.8.81,1.6,1.65a5.88,5.88,0,0,0,2.8.81h2.41a57.08,57.08,0,0,0,.4,6.57A79,79,0,0,0,474.34,535h0c0,17.23,5.21,32.83,14.43,42.67a6.92,6.92,0,0,0,2,2.07,87.35,87.35,0,0,1,7.22-11.1c1.2-1.23,2.41-2.85,3.61-4.08,2.4-2.07,4.41-3.72,6.41-5.34A49.1,49.1,0,0,1,526.45,551c-6.81,3.69-10.82,5.76-17.63,11.49-4,3.69-10.82,9.84-15.23,18.88a5.82,5.82,0,0,0,3.61,1.65c1.2-1.23,6-10.26,13.63-17.65a63.49,63.49,0,0,1,42.89-18.06c.4-4.11.8-8.19.8-12.3a75.79,75.79,0,0,0-2.41-19.71l11.22-13.12s.8-.84.8-1.23" transform="translate(-459.87 -441)" style="fill:#1a1446;fill-rule:evenodd"/><path d="M480.08,495.35a7.38,7.38,0,0,0-3.6-1.26,6.54,6.54,0,0,0-4,1.26,3.21,3.21,0,0,1-.4-2.07l.8-.84-.4-7.49s2-1.23,2.8-1.65a.88.88,0,0,0,.8-.84,9.3,9.3,0,0,1,2.8,2.91,8.05,8.05,0,0,1,.8,3.32,7.32,7.32,0,0,1,0,4.16c.4,0,.8.42.8,1.23.4.42,0,.84-.4,1.26" transform="translate(-459.87 -441)" style="fill:#fff;fill-rule:evenodd"/><path d="M545.26,518.28c0-1.68-1.61-5.39-2.81-6.23l17.28-7.91Z" transform="translate(-459.87 -441)" style="fill:#fff;fill-rule:evenodd"/><path d="M498.78,489.07l14.77,13.67c-1.64.84-3.69,2.91-4.1,4.56Z" transform="translate(-459.87 -441)" style="fill:#fff;fill-rule:evenodd"/><path d="M507.26,515.74c-.4.81-.81,1.2-.81,2-.4,1.2,0,1.6,0,2.41L502,516.95c0-.79-.4-2.8-.4-3.61v-.39Z" transform="translate(-459.87 -441)" style="fill:#fff;fill-rule:evenodd"/><path d="M482.82,516.92c0-.42-1.6-27.54-1.6-28.77l1.6-.81v-.42a3.1,3.1,0,0,1-2.8-1.23l-.4-8.22c-1.2,0-2.8-.42-3.2-1.23-.8-.42-1.2-1.23-.4-2.88a9.45,9.45,0,0,0,4.4,1.23c.4,0,1.2.81,1.6.81a4.12,4.12,0,0,0,2,.84,2.54,2.54,0,0,1,.4,1.65c.4.39,13.59,35.34,13.59,35.74.4.42,1.2,6.18,1.2,6.6a34.89,34.89,0,0,0,2.4,5.73,10.31,10.31,0,0,0-7.2,3.3c-2,2-4,7.41-4.8,9.45,0-1.23-6.4-21.36-6.8-21.78" transform="translate(-459.87 -441)" style="fill:#fff;fill-rule:evenodd"/><path d="M499.58,550.28c-.8,5.31-2,10.24-4,13.54-1.2,2-4.4,6.54-5.6,8.19a37.56,37.56,0,0,0,2-14.35c0-3.3-.8-10.26,0-15.18a18.31,18.31,0,0,1,5.6-11.07,10.32,10.32,0,0,1,10-2.46l4.4,7.8a9.11,9.11,0,0,0-7.2,1.62c-3.6,2.88-4.8,6.57-5.2,11.91" transform="translate(-459.87 -441)" style="fill:#fff;fill-rule:evenodd"/><path d="M500,561c.8-2.07,2.4-8.72,2.4-10.79.8-2.91,1.2-7.07,4.39-9.95,1.6-1.26,4-1.26,5.19-1.26l4.39,9.95a3.05,3.05,0,0,0,2.8,1.26C514.81,551.45,504,556.87,500,561" transform="translate(-459.87 -441)" style="fill:#fff;fill-rule:evenodd"/><path d="M538.88,530.4a3.17,3.17,0,0,0,0,3.32c.41.84,2.9,5.42,2.9,5.42a48,48,0,0,0,2.07,4.58h4.56c-1.66-3.74-5.81-10.81-5.81-10.81v-5.84a9.4,9.4,0,0,0-3.73,3.32" transform="translate(-459.87 -441)" style="fill:#fff;fill-rule:evenodd"/><path d="M519.2,500.19c2.09-.42,6.28,0,7.54.81l-4.19-24.19Z" transform="translate(-459.87 -441)" style="fill:#fff;fill-rule:evenodd"/><path d="M484.42,477.89a2.54,2.54,0,0,0-.4-1.65,4.12,4.12,0,0,1-2-.84c-.4,0-1.2-.81-1.6-.81a9.45,9.45,0,0,1-4.4-1.23c-.8,1.65-.4,2.46.4,2.88.4.81,2,1.23,3.2,1.23l.4,8.22a3.1,3.1,0,0,0,2.8,1.23v.42l-1.6.81c0,1.23,1.6,28.35,1.6,28.77.4.42,6.8,20.55,6.8,21.78.8-2,2.8-7.41,4.8-9.45a10.31,10.31,0,0,1,7.2-3.3,34.89,34.89,0,0,1-2.4-5.73c0-.42-.8-6.18-1.2-6.6,0-.39-13.19-35.34-13.59-35.74" transform="translate(-459.87 -441)" style="fill:#fff;fill-rule:evenodd"/><path d="M476.59,471.47a7.63,7.63,0,0,1,6.08,2.51c.41-1.68,0-2.51-1.21-3.77-.81-.84-2.43-1.26-5.27-1.26-1.62,0-3.65.42-4.46,1.26-1.22.84-1.22,2.09-1.22,3.35.41-.84,2.84-2.09,6.08-2.09" transform="translate(-459.87 -441)" style="fill:#fff;fill-rule:evenodd"/><path d="M469.88,451.21a12.94,12.94,0,0,0,.79,4.16c.4.39,1.19,1.23,2,1.23s2-2.07,4-1.65c1.58,0,2.38,2.07,3.57,2.07.79,0,1.19-.84,2.38-.84.79-.42.79,0,1.59.84,0-.84.79-1.65,2-2.49,1.19-1.26,6.34-2.07,8.32-4.16,1.19-.81,1.19-2.91,1.19-4.14a7,7,0,0,1-5.15,2.49c-1.19.42-4-.42-4.76-.84a2.84,2.84,0,0,0,.4-2.49,19.09,19.09,0,0,1-5.15.84c-1.19,0-3.57-.42-5.15-.42a5.57,5.57,0,0,0-5.95,5.39" transform="translate(-459.87 -441)" style="fill:#fff;fill-rule:evenodd"/><path d="M476.48,464c8.8,0,12.4,4.08,12.79,7.36a3.5,3.5,0,0,0,0-2.85c0-.81-1.2-3.27-1.2-4.08a5.26,5.26,0,0,1,.4-2.46c-.8.39-2.4,1.23-3.2.39-1.2-.81-.4-2.43-1.6-2.85s-2.8.81-4,.81c-1.2-.39-2.4-2-3.2-2-1.6,0-2,1.65-3.6,2-1.2,0-2.4-.39-3.2-.39a1.27,1.27,0,0,0-1.2,1.2c-.4.84-.8,1.23-1.6,1.23-.8.42-1.6-.39-2-.39,0,.39.4,2,0,2.85a42.52,42.52,0,0,0-1.6,4.11c0,1.2.4,1.62.8,2.85-.4-4.92,4.8-7.78,12.4-7.78" transform="translate(-459.87 -441)" style="fill:#fff;fill-rule:evenodd"/><path d="M471.25,480.9a12.09,12.09,0,0,0-2.78,2.09,18.71,18.71,0,0,0,1.59,2.93c.4-.84,1.19-2.09,1.59-2.09l1.19-1.26c.79,0,.79-.42.79-.84a1.59,1.59,0,0,0-.4-1.26,2.28,2.28,0,0,0,1.59-.42,1.59,1.59,0,0,0,.4-1.26.88.88,0,0,0-.79-.84H472a5.64,5.64,0,0,0,1.19-.84c.4,0,.4-.42.79-.84a4.38,4.38,0,0,0-.4-1.68c-1.59,0-4.37,1.68-5.16,2.51l.79,1.26h-1.19c-.4.84,0,2.09,0,2.93a9.36,9.36,0,0,1,3.17-.42" transform="translate(-459.87 -441)" style="fill:#fff;fill-rule:evenodd"/><path d="M533.8,514.91c-2-1.26-5.22-3.3-6.42-3.3l1.6-4.11c1.2.42,6,3.69,6.82,4.11Zm-8.42-4.11c-1.6-.84-6-.84-7.62-.42l-1.2-3.69c.8-.84,2.81-1.23,4.41-1.23a16.62,16.62,0,0,1,4.81.81Zm-13.24,2.85c-.8-2.46,1.2-4.92,2.41-6.15l1.2,3.3a28.43,28.43,0,0,0-3.61,2.85m4.41,6.57a16.33,16.33,0,0,1,3.61-1.23c2.41-.81,5.22.84,7.22,2.46l-.4.42-2.81.84a5.62,5.62,0,0,0-2.81-.84,4.69,4.69,0,0,0-2,.42l.8,1.23H519c-.8-.42-1.6-1.65-2.41-1.65Zm25.28-4.5c-.4-.81-3.21-4.11-7.62-7.8-3.61-2.46-8.83-5.34-12.84-5.34-7.22,0-10.43,5.34-10.83,7.8a7,7,0,0,0,0,4.11,4.26,4.26,0,0,0-1.6,3.27,2,2,0,0,0,.8,2.46c-.4-.81.4-2,1.2-2.85.4-1.23,1.6-1.65,2.41-2.07l.4,2.07a6.72,6.72,0,0,0-2.41,2.46l.4,3.27,2.41-1.65.4.84-.8,6.15,1.2-.42,2.81,1.23-2.81,2.07v.81a2.38,2.38,0,0,1,1.6-.39,12.32,12.32,0,0,1,2.81.81v.81h-4.41c0,.42.4.84.8,1.23a2.45,2.45,0,0,1,1.6-.39H519l-.8,1.23s-.4.39-1.2,0c-.4,0-.8.39-.8,1.23a10.08,10.08,0,0,0,.4,1.65,2,2,0,0,0,2.41,1.62c1.2-.39,5.22-1.62,5.22-1.62l-3.61,5.31,1.6,5.76c2.41-1.23,9.63-3.69,17.65-4.92a41.41,41.41,0,0,0-2-4.53l-4-9.42.4-1.65c.8.39,2.41-.42,3.21-1.23a8.51,8.51,0,0,0,2.41-2.88,2.33,2.33,0,0,0-1.6.42c-.4,0-.8.81-1.6.39s-.4-1.23,0-2c0-.42-1.2-.42-1.6,0a2.39,2.39,0,0,1-2.81-.42,83,83,0,0,0-6.82-5.73,13,13,0,0,0-7.62-1.23,17.56,17.56,0,0,1-2.81.81l-1.6-2.88h.4c.4,0,1.2.84,1.6.42a16,16,0,0,1,5.62-.84,23.6,23.6,0,0,1,8.83,2.07c0,2,4.41,4.92,6.42,4.92a3.79,3.79,0,0,0,3.61-.81l-4.41-3.69,2.41-2.88,4,4.11v-1.65" transform="translate(-459.87 -441)" style="fill:#fff;fill-rule:evenodd"/><path d="M533,503.81c1.6.84,5.19,3.69,6,4.11l8.78-18.85Z" transform="translate(-459.87 -441)" style="fill:#fff;fill-rule:evenodd"/></svg>